<?xml version="1.0" standalone="no"?>
<!DOCTYPE svg PUBLIC "-//W3C//DTD SVG 20010904//EN"
 "http://www.w3.org/TR/2001/REC-SVG-20010904/DTD/svg10.dtd">
<svg version="1.0" xmlns="http://www.w3.org/2000/svg"
 width="943.000000pt" height="943.000000pt" viewBox="0 0 943.000000 943.000000"
 preserveAspectRatio="xMidYMid meet">
<metadata>
Created by potrace 1.11, written by Peter Selinger 2001-2013
</metadata>
<g transform="translate(0.000000,943.000000) scale(0.100000,-0.100000)"
fill="#000000" stroke="none">
<path d="M5480 9185 c-322 -135 -594 -249 -605 -255 -11 -5 -130 -55 -265
-111 -135 -55 -261 -108 -280 -116 -59 -25 -72 -31 -180 -76 -58 -25 -222 -93
-365 -152 -143 -60 -262 -109 -263 -111 -4 -3 -8 -229 -17 -949 -3 -286 -8
-646 -10 -800 -3 -154 -7 -491 -10 -750 -3 -258 -8 -612 -10 -785 -7 -461 -15
-1100 -20 -1630 -3 -256 -8 -616 -10 -800 -3 -184 -7 -535 -10 -780 -3 -245
-7 -591 -10 -769 l-5 -323 108 6 c219 13 259 16 352 21 485 26 1336 26 1825 0
225 -12 255 -13 256 -7 3 14 7 217 13 777 4 314 9 710 11 880 2 171 7 533 10
805 6 498 9 761 19 1470 3 212 8 592 11 845 3 253 8 620 10 815 3 195 7 576
10 845 3 270 8 623 10 785 11 834 17 1410 14 1410 -2 0 -267 -111 -589 -245z"/>
<path d="M6220 6753 c-1 -87 -3 -257 -5 -378 -2 -121 -6 -461 -10 -755 -3
-294 -7 -686 -10 -870 -3 -184 -7 -578 -10 -875 -3 -297 -8 -704 -10 -905 -6
-472 -13 -1037 -21 -1677 -7 -575 -15 -513 66 -518 19 -1 62 -5 95 -8 33 -4
94 -9 135 -12 103 -7 185 -15 365 -35 50 -5 117 -12 150 -15 33 -3 74 -7 90
-10 17 -2 48 -6 70 -9 22 -3 61 -8 87 -11 26 -3 62 -7 80 -10 18 -2 89 -12
158 -20 69 -9 132 -18 140 -20 8 -2 40 -7 70 -10 30 -4 92 -13 138 -21 45 -8
99 -17 120 -19 20 -3 48 -8 62 -10 14 -3 41 -7 60 -10 68 -11 406 -75 493 -93
l87 -19 1 46 c0 25 2 163 4 306 4 276 13 932 20 1535 2 201 7 532 10 735 3
204 7 582 11 840 5 480 7 604 19 1460 l7 490 -38 16 c-138 58 -2135 913 -2162
925 -43 20 -265 114 -269 114 -2 0 -3 -71 -3 -157z"/>
<path d="M3030 4884 c-387 -164 -397 -168 -550 -233 -80 -33 -486 -204 -903
-380 -417 -175 -761 -322 -765 -325 -6 -7 -7 -43 -17 -831 -5 -475 -11 -916
-20 -1475 -13 -900 -16 -1222 -8 -1217 9 5 327 67 383 74 19 2 58 8 85 14 28
5 66 12 85 15 19 3 86 14 148 25 62 10 131 22 155 24 23 3 53 8 67 10 61 10
159 25 205 30 28 4 61 8 75 11 14 2 49 6 78 10 29 3 63 7 75 10 12 2 45 6 72
10 96 10 195 22 245 29 14 2 54 6 90 10 36 4 76 8 90 10 14 2 61 7 105 11 44
3 88 8 97 10 10 1 59 6 110 10 51 3 100 8 109 9 8 2 55 6 105 10 49 4 91 9 94
12 6 6 7 45 15 1153 4 498 8 1036 10 1195 10 1000 16 1875 13 1874 -1 0 -113
-48 -248 -105z"/>
<path d="M4388 565 c-2 -1 -129 -5 -283 -9 -154 -4 -314 -8 -355 -10 -41 -3
-148 -7 -236 -11 -89 -3 -173 -8 -185 -10 -13 -2 -71 -6 -129 -10 -58 -3 -125
-7 -150 -10 -25 -2 -91 -6 -147 -10 -56 -3 -110 -7 -120 -9 -10 -2 -58 -7
-106 -11 -48 -3 -96 -8 -105 -10 -9 -1 -55 -6 -102 -10 -47 -4 -96 -8 -110
-10 -14 -1 -59 -6 -100 -11 -41 -4 -77 -8 -80 -9 -3 -1 -41 -5 -85 -10 -44 -5
-82 -9 -85 -10 -3 -1 -36 -5 -75 -9 -38 -5 -77 -10 -85 -11 -9 -2 -43 -7 -75
-11 -33 -4 -62 -8 -65 -9 -3 -1 -30 -5 -60 -9 -30 -4 -93 -14 -140 -21 -47 -8
-105 -17 -130 -20 -67 -9 -219 -35 -290 -50 -14 -3 -41 -8 -60 -11 -19 -2 -55
-9 -80 -14 -25 -5 -58 -12 -75 -15 -32 -5 -65 -12 -105 -20 -14 -3 -35 -7 -48
-10 -13 -2 -32 -7 -42 -10 -10 -3 -29 -8 -42 -10 -85 -17 -145 -30 -228 -50
-52 -13 -106 -26 -120 -29 -94 -18 -284 -73 -288 -84 -3 -10 57 -12 295 -12
164 1 318 5 343 10 25 4 74 11 110 15 36 3 72 8 80 10 8 2 44 7 80 10 36 3 72
8 80 10 8 2 44 7 80 10 36 3 81 8 100 10 70 9 106 13 175 20 39 3 90 8 114 11
24 3 67 7 95 9 28 2 76 7 106 10 91 10 131 13 225 20 50 4 106 8 125 10 33 3
99 9 260 20 36 2 99 7 140 10 41 3 116 7 165 10 50 3 128 7 175 10 160 9 295
16 640 30 481 20 1893 27 2285 11 105 -4 240 -9 300 -11 206 -8 617 -33 830
-50 84 -7 177 -14 270 -21 44 -3 94 -7 110 -9 17 -1 62 -6 100 -9 39 -4 88 -9
110 -11 22 -3 67 -7 100 -10 89 -9 156 -16 190 -20 46 -6 115 -14 170 -20 28
-3 64 -8 80 -10 17 -2 57 -7 90 -10 33 -3 71 -8 85 -10 14 -3 48 -7 75 -10 28
-3 57 -8 65 -10 8 -3 41 -7 72 -10 31 -3 79 -10 105 -15 26 -5 210 -9 408 -9
l360 0 -235 59 c-224 57 -301 75 -345 85 -11 2 -96 20 -190 40 -93 20 -181 39
-195 41 -14 3 -68 13 -120 24 -52 10 -148 28 -212 39 -64 11 -127 23 -140 25
-13 3 -41 8 -62 11 -21 3 -48 7 -60 10 -24 5 -81 14 -141 21 -22 3 -49 7 -61
9 -21 5 -135 22 -204 31 -19 2 -60 8 -90 13 -30 6 -84 13 -120 17 -36 3 -72 7
-80 9 -8 1 -46 6 -85 10 -38 4 -77 8 -85 10 -9 2 -46 6 -82 9 -37 4 -76 9 -87
11 -11 2 -61 7 -111 10 -51 4 -99 8 -108 10 -10 1 -64 6 -122 10 -58 4 -113 9
-123 11 -10 1 -59 6 -110 9 -51 3 -121 8 -157 10 -68 5 -197 12 -385 21 -106
5 -1092 13 -1097 9z"/>
</g>
</svg>
